<?xml version="1.0" encoding="utf-8"?>
<!-- Svg Vector Icons : http://www.onlinewebfonts.com/icon -->
<!DOCTYPE svg PUBLIC "-//W3C//DTD SVG 1.1//EN" "http://www.w3.org/Graphics/SVG/1.1/DTD/svg11.dtd">
<svg version="1.1" xmlns="http://www.w3.org/2000/svg" xmlns:xlink="http://www.w3.org/1999/xlink" x="0px" y="0px" viewBox="0 0 1000 1000" enable-background="new 0 0 1000 1000" xml:space="preserve">
<metadata> Svg Vector Icons : http://www.onlinewebfonts.com/icon </metadata>
<g><path d="M59,206h882c21.4,0,49-26.6,49-49s-27.6-49-49-49H59c-21.4,0-49,26.6-49,49S37.6,206,59,206L59,206z M941,451H59c-21.4,0-49,26.6-49,49c0,22.4,27.6,49,49,49h882c21.4,0,49-26.6,49-49C990,477.6,962.4,451,941,451L941,451z M941,794H59c-21.4,0-49,26.6-49,49s17.3,49,38.7,49H941c21.4,0,49-26.6,49-49S962.4,794,941,794L941,794z"/></g>
</svg>